<?xml version="1.0" encoding="UTF-8"?>
<svg fill="#ffffff" width="100pt" height="100pt" version="1.1" viewBox="0 0 100 100" xmlns="http://www.w3.org/2000/svg">
 <g>
  <path d="m34.199 49.898c1.5 0 2.6992-1.1992 2.6992-2.6992 0-0.30078-0.10156-0.60156-0.19922-0.89844l9.1992-9.1016c0.5-0.5 0.5-1.3008 0-1.8008s-1.3008-0.5-1.8008 0l-9.3984 9.3008c-0.19922 0-0.30078-0.10156-0.5-0.10156l-5.1992 0.003906-4.1992-4.6992c-1.1992-1.3984-3-2.1016-4.8008-2.1016h-4.8008c-2.1016 0-4.1016 1-5.3008 2.8008l-6.8984 10.098c-0.60156 0.89844-0.69922 2.1016-0.10156 3.1016 0.5 0.80078 1.3984 1.1992 2.1992 1.1992 0.80078 0 1.6992-0.39844 2.1992-1.1016l3.6016-5.1992v26.602c0 1.3008 0.89844 2.5 2.1992 2.8008 1.6992 0.30078 3.1016-1 3.1016-2.6016v-16.602h2.6016v16.301c0 1.3008 0.89844 2.5 2.1992 2.8008 1.6992 0.30078 3.1016-1 3.1016-2.6016v-28.398l1.8008 2c0.5 0.60156 1.1992 0.89844 2 0.89844z"/>
  <path d="m23.398 30.398c0 3.2617-2.6406 5.9023-5.8984 5.9023s-5.8984-2.6406-5.8984-5.9023c0-3.2578 2.6406-5.8984 5.8984-5.8984s5.8984 2.6406 5.8984 5.8984"/>
  <path d="m39.5 77.398h-5.8008c-3.1992 0-5.8008 2.6016-5.8008 5.8008v3.8008c0 0.69922 0.60156 1.3008 1.3008 1.3008h14.801c0.69922 0 1.3008-0.60156 1.3008-1.3008v-3.8008c0-3.1992-2.6016-5.8008-5.8008-5.8008z"/>
  <path d="m41.5 70.801c0 6.5312-9.8008 6.5312-9.8008 0 0-6.5352 9.8008-6.5352 9.8008 0"/>
  <path d="m60.5 77.398h-5.8008c-3.1992 0-5.8008 2.6016-5.8008 5.8008v3.8008c0 0.69922 0.60156 1.3008 1.3008 1.3008h14.801c0.69922 0 1.3008-0.60156 1.3008-1.3008v-3.8008c0-3.1992-2.6016-5.8008-5.8008-5.8008z"/>
  <path d="m62.5 70.801c0 6.5312-9.8008 6.5312-9.8008 0 0-6.5352 9.8008-6.5352 9.8008 0"/>
  <path d="m81.5 77.398h-5.8008c-3.1992 0-5.8008 2.6016-5.8008 5.8008v3.8008c0 0.69922 0.60156 1.3008 1.3008 1.3008h14.801c0.69922 0 1.3008-0.60156 1.3008-1.3008v-3.8008c0-3.1992-2.6016-5.8008-5.8008-5.8008z"/>
  <path d="m83.5 70.801c0 6.5312-9.8008 6.5312-9.8008 0 0-6.5352 9.8008-6.5352 9.8008 0"/>
  <path d="m79.801 11.699c-7.8008 0-14.301 5-16.699 12h-31.801c-1.1016 0-2 0.89844-2 2v12.301l1.8008 2h2.3008l-0.003906-12.199h28.898c0 0.5-0.10156 1.1016-0.10156 1.6016 0 9.6992 7.8984 17.699 17.699 17.699 0.69922 0 1.3984-0.10156 2.1016-0.10156v10.898h-48.695v-3.5h-4.1016v5.5c0 1.1016 0.89844 2 2 2h52.602c1.1016 0 2-0.89844 2-2v-13.898c6.6992-2.5 11.5-9 11.5-16.602 0.19922-9.6992-7.6992-17.699-17.5-17.699zm0 31.301c-7.5 0-13.602-6.1016-13.602-13.602s6.1016-13.602 13.602-13.602 13.602 6.1016 13.602 13.602c-0.003906 7.5-6.1016 13.602-13.602 13.602z"/>
  <path d="m86.102 27.398h-4.3008v-5.8984c0-1.1016-0.89844-2-2-2-1.1016 0-2 0.89844-2 2v7.8984c0 1.1016 0.89844 2 2 2h6.3008c1.1016 0 2-0.89844 2-2 0.097657-1.0977-0.80078-2-2-2z"/>
 </g>
</svg>
